<svg id="Warstwa_1" data-name="Warstwa 1" xmlns="http://www.w3.org/2000/svg" viewBox="0 0 105.89 35.11"><defs><style>.cls-1{fill:none;}</style></defs><title>icon</title><path d="M561.34,387.07c-7.14-1.17-9.44-6-5.84-12.35.19-.32.51-.62.55-1,.84-7.24,6-8.08,11.87-8.46a25.89,25.89,0,0,0,8.82-2.61c15-6.89,30.1-7.49,44.69.14,7.9,4.12,16.13,4.82,24.49,5.95.5.07,1,.09,1.49.15,9.54,1.14,13.18,5.79,12.13,15.5-.37,3.42-2.82,4.75-8.4,3.61a15.41,15.41,0,0,1,3-1.34c2.55-.57,3.41-2,3.26-4.59-.45-7.52-2.17-9.52-9.68-10.66-1.85-.28-3.71-.53-5.58-.69a56.83,56.83,0,0,1-21.79-5.9c-13.68-7.06-27.78-6.5-41.87-.42A50.79,50.79,0,0,1,566,367.81c-3.77.58-6.75,1.19-7.33,5.74-.28,2.13-1.64,4.1-2.1,6.23-.51,2.38.55,4,3.08,4.75a9.07,9.07,0,0,1,2.4,1.71Z" transform="translate(-553.82 -357.31)"/><path d="M597.74,363.42c8.65-.61,16.62.14,23.53,7.16a35,35,0,0,1-3.61.23c-5-.25-9.95-.58-14.93-.83C597.09,369.68,597,369.58,597.74,363.42Z" transform="translate(-553.82 -357.31)"/><path d="M630.11,389H583.59l-.3-1c.79-.36,1.57-1,2.36-1q21.17-.09,42.32,0a8.24,8.24,0,0,1,2.41.77Z" transform="translate(-553.82 -357.31)"/><path d="M633.23,384.75a7.52,7.52,0,1,1,7.5,7.67A7.5,7.5,0,0,1,633.23,384.75Zm7.46-5.47a5.5,5.5,0,1,0,5.48,5.44A5.54,5.54,0,0,0,640.69,379.28Z" transform="translate(-553.82 -357.31)"/><path d="M565.13,384.5a7.51,7.51,0,0,1,7.87-7.33,7.63,7.63,0,1,1-.56,15.24A7.52,7.52,0,0,1,565.13,384.5Zm13,.08a5.55,5.55,0,0,0-5.63-5.29,5.72,5.72,0,0,0-5.28,5.69,5.65,5.65,0,0,0,5.68,5.29A5.56,5.56,0,0,0,578.18,384.58Z" transform="translate(-553.82 -357.31)"/><path d="M594,362.72v6.68l-6.63-.61-.46-1.33Z" transform="translate(-553.82 -357.31)"/><path class="cls-1" d="M640.69,379.28a5.5,5.5,0,1,1-5.36,5.56A5.57,5.57,0,0,1,640.69,379.28Z" transform="translate(-553.82 -357.31)"/><path class="cls-1" d="M578.18,384.58a5.56,5.56,0,0,1-5.23,5.69,5.65,5.65,0,0,1-5.68-5.29,5.72,5.72,0,0,1,5.28-5.69A5.55,5.55,0,0,1,578.18,384.58Z" transform="translate(-553.82 -357.31)"/></svg>